{
	"asset":{
		"generator":"Khronos glTF Blender I/O v4.4.56",
		"version":"2.0"
	},
	"scene":0,
	"scenes":[
		{
			"name":"Scene",
			"nodes":[
				0
			]
		}
	],
	"nodes":[
		{
			"mesh":0,
			"name":"Car"
		}
	],
	"materials":[
		{
			"doubleSided":true,
			"name":"CarMat",
			"pbrMetallicRoughness":{
				"baseColorTexture":{
					"index":0
				},
				"metallicFactor":0.6377952694892883,
				"roughnessFactor":0.24015748500823975
			}
		}
	],
	"meshes":[
		{
			"name":"Car",
			"primitives":[
				{
					"attributes":{
						"POSITION":0,
						"NORMAL":1,
						"TEXCOORD_0":2
					},
					"indices":3,
					"material":0
				}
			]
		}
	],
	"textures":[
		{
			"sampler":0,
			"source":0
		}
	],
	"images":[
		{
			"mimeType":"image/png",
			"name":"CarTexture",
			"uri":"CarTexture.png"
		}
	],
	"accessors":[
		{
			"bufferView":0,
			"componentType":5126,
			"count":5422,
			"max":[
				0.6195313334465027,
				1.0064665079116821,
				1.2709155082702637
			],
			"min":[
				-0.6195313334465027,
				-1.1008867025375366,
				-0.0019315630197525024
			],
			"type":"VEC3"
		},
		{
			"bufferView":1,
			"componentType":5126,
			"count":5422,
			"type":"VEC3"
		},
		{
			"bufferView":2,
			"componentType":5126,
			"count":5422,
			"type":"VEC2"
		},
		{
			"bufferView":3,
			"componentType":5123,
			"count":8916,
			"type":"SCALAR"
		}
	],
	"bufferViews":[
		{
			"buffer":0,
			"byteLength":65064,
			"byteOffset":0,
			"target":34962
		},
		{
			"buffer":0,
			"byteLength":65064,
			"byteOffset":65064,
			"target":34962
		},
		{
			"buffer":0,
			"byteLength":43376,
			"byteOffset":130128,
			"target":34962
		},
		{
			"buffer":0,
			"byteLength":17832,
			"byteOffset":173504,
			"target":34963
		}
	],
	"samplers":[
		{
			"magFilter":9729,
			"minFilter":9987
		}
	],
	"buffers":[
		{
			"byteLength":191336,
			"uri":"car.bin"
		}
	]
}
