{
	"asset":
	{
		"version": "2.0",
		"generator": "Unreal Engine 5.5.4"
	},
	"scene": 0,
	"accessors": [
		{
			"bufferView": 0,
			"count": 4692,
			"type": "SCALAR",
			"componentType": 5123
		},
		{
			"bufferView": 1,
			"count": 1206,
			"type": "VEC3",
			"componentType": 5126,
			"min": [ -0.350813031, 9.87459771e-06, -0.122250147 ],
			"max": [ 0.170907125, 0.510639548, 0.122250147 ]
		},
		{
			"bufferView": 2,
			"count": 1206,
			"type": "VEC3",
			"componentType": 5126
		},
		{
			"bufferView": 3,
			"count": 1206,
			"type": "VEC4",
			"componentType": 5126
		},
		{
			"bufferView": 4,
			"count": 1206,
			"type": "VEC2",
			"componentType": 5126
		},
		{
			"bufferView": 5,
			"count": 1206,
			"type": "VEC2",
			"componentType": 5126
		},
		{
			"bufferView": 6,
			"count": 1206,
			"type": "VEC2",
			"componentType": 5126
		}
	],
	"buffers": [
		{
			"uri": "SM_Canister.bin",
			"byteLength": 86568
		}
	],
	"bufferViews": [
		{
			"buffer": 0,
			"byteLength": 9384,
			"target": 34963
		},
		{
			"buffer": 0,
			"byteLength": 14472,
			"byteOffset": 9384,
			"target": 34962
		},
		{
			"buffer": 0,
			"byteLength": 14472,
			"byteOffset": 23856,
			"target": 34962
		},
		{
			"buffer": 0,
			"byteLength": 19296,
			"byteOffset": 38328,
			"target": 34962
		},
		{
			"buffer": 0,
			"byteLength": 9648,
			"byteOffset": 57624,
			"target": 34962
		},
		{
			"buffer": 0,
			"byteLength": 9648,
			"byteOffset": 67272,
			"target": 34962
		},
		{
			"buffer": 0,
			"byteLength": 9648,
			"byteOffset": 76920,
			"target": 34962
		}
	],
	"images": [
		{
			"uri": "MI_Canister_01a_BaseColor.png"
		},
		{
			"uri": "MI_Canister_01a_MetallicRoughness.png"
		},
		{
			"uri": "MI_Canister_01a_Normal.png"
		},
		{
			"uri": "MI_Canister_01a_Occlusion.png"
		},
		{
			"uri": "MI_Canister_01a_Specular.png"
		}
	],
	"materials": [
		{
			"name": "MI_Canister_01a",
			"pbrMetallicRoughness":
			{
				"baseColorTexture":
				{
					"index": 0
				},
				"metallicRoughnessTexture":
				{
					"index": 1
				}
			},
			"normalTexture":
			{
				"index": 2
			},
			"occlusionTexture":
			{
				"index": 3
			},
			"extensions":
			{
				"KHR_materials_specular":
				{
					"specularTexture":
					{
						"index": 4
					}
				}
			}
		}
	],
	"meshes": [
		{
			"name": "SM_Canister",
			"primitives": [
				{
					"attributes":
					{
						"POSITION": 1,
						"NORMAL": 2,
						"TANGENT": 3,
						"TEXCOORD_0": 4,
						"TEXCOORD_1": 5,
						"TEXCOORD_2": 6
					},
					"indices": 0,
					"material": 0
				}
			]
		}
	],
	"nodes": [
		{
			"mesh": 0
		}
	],
	"samplers": [
		{
			"minFilter": 9987,
			"magFilter": 9729
		}
	],
	"scenes": [
		{
			"nodes": [ 0 ]
		}
	],
	"textures": [
		{
			"name": "MI_Canister_01a_BaseColor",
			"sampler": 0,
			"source": 0
		},
		{
			"name": "MI_Canister_01a_MetallicRoughness",
			"sampler": 0,
			"source": 1
		},
		{
			"name": "MI_Canister_01a_Normal",
			"sampler": 0,
			"source": 2
		},
		{
			"name": "MI_Canister_01a_Occlusion",
			"sampler": 0,
			"source": 3
		},
		{
			"name": "MI_Canister_01a_Specular",
			"sampler": 0,
			"source": 4
		}
	],
	"extensionsUsed": [
		"KHR_materials_specular"
	]
}