{
	"asset":
	{
		"version": "2.0",
		"generator": "Unreal Engine 5.5.4"
	},
	"scene": 0,
	"accessors": [
		{
			"bufferView": 0,
			"count": 7572,
			"type": "SCALAR",
			"componentType": 5123
		},
		{
			"bufferView": 1,
			"count": 1968,
			"type": "VEC3",
			"componentType": 5126,
			"min": [ -0.105147168, 0, -0.10514719 ],
			"max": [ 0.105147138, 4.13590622, 1.43840301 ]
		},
		{
			"bufferView": 2,
			"count": 1968,
			"type": "VEC3",
			"componentType": 5126
		},
		{
			"bufferView": 3,
			"count": 1968,
			"type": "VEC4",
			"componentType": 5126
		},
		{
			"bufferView": 4,
			"count": 1968,
			"type": "VEC2",
			"componentType": 5126
		},
		{
			"bufferView": 5,
			"count": 1968,
			"type": "VEC2",
			"componentType": 5126
		},
		{
			"bufferView": 6,
			"count": 1968,
			"type": "VEC2",
			"componentType": 5126
		}
	],
	"buffers": [
		{
			"uri": "SM_SingleLight_01.bin",
			"byteLength": 141096
		}
	],
	"bufferViews": [
		{
			"buffer": 0,
			"byteLength": 15144,
			"target": 34963
		},
		{
			"buffer": 0,
			"byteLength": 23616,
			"byteOffset": 15144,
			"target": 34962
		},
		{
			"buffer": 0,
			"byteLength": 23616,
			"byteOffset": 38760,
			"target": 34962
		},
		{
			"buffer": 0,
			"byteLength": 31488,
			"byteOffset": 62376,
			"target": 34962
		},
		{
			"buffer": 0,
			"byteLength": 15744,
			"byteOffset": 93864,
			"target": 34962
		},
		{
			"buffer": 0,
			"byteLength": 15744,
			"byteOffset": 109608,
			"target": 34962
		},
		{
			"buffer": 0,
			"byteLength": 15744,
			"byteOffset": 125352,
			"target": 34962
		}
	],
	"images": [
		{
			"uri": "MI_StreetLights_Emissive.png"
		},
		{
			"uri": "T_StreetLights_BC_01a.png"
		},
		{
			"uri": "T_StreetLights_OMR_01a.png"
		},
		{
			"uri": "T_StreetLights_Nrm_01a.png"
		}
	],
	"materials": [
		{
			"name": "MI_StreetLights",
			"pbrMetallicRoughness":
			{
				"baseColorTexture":
				{
					"index": 0
				},
				"metallicRoughnessTexture":
				{
					"index": 1
				}
			},
			"normalTexture":
			{
				"index": 3
			},
			"occlusionTexture":
			{
				"index": 1
			},
			"emissiveTexture":
			{
				"index": 2
			},
			"emissiveFactor": [ 1, 1, 1 ],
			"extensions":
			{
				"KHR_materials_emissive_strength":
				{
					"emissiveStrength": 20
				}
			}
		}
	],
	"meshes": [
		{
			"name": "SM_SingleLight_01",
			"primitives": [
				{
					"attributes":
					{
						"POSITION": 1,
						"NORMAL": 2,
						"TANGENT": 3,
						"TEXCOORD_0": 4,
						"TEXCOORD_1": 5,
						"TEXCOORD_2": 6
					},
					"indices": 0,
					"material": 0
				}
			]
		}
	],
	"nodes": [
		{
			"mesh": 0
		}
	],
	"samplers": [
		{
			"minFilter": 9987,
			"magFilter": 9729
		}
	],
	"scenes": [
		{
			"nodes": [ 0 ]
		}
	],
	"textures": [
		{
			"name": "T_StreetLights_BC_01a",
			"sampler": 0,
			"source": 1
		},
		{
			"name": "T_StreetLights_OMR_01a",
			"sampler": 0,
			"source": 2
		},
		{
			"name": "MI_StreetLights_Emissive",
			"sampler": 0,
			"source": 0
		},
		{
			"name": "T_StreetLights_Nrm_01a",
			"sampler": 0,
			"source": 3
		}
	],
	"extensionsUsed": [
		"KHR_materials_emissive_strength"
	]
}